<!DOCTYPE svg PUBLIC "-//W3C//DTD SVG 1.1//EN" "http://www.w3.org/Graphics/SVG/1.1/DTD/svg11.dtd">

<!-- Uploaded to: SVG Repo, www.svgrepo.com, Transformed by: SVG Repo Mixer Tools -->
<svg fill="#666" height="800px" width="800px" version="1.1" id="Capa_1" xmlns="http://www.w3.org/2000/svg" xmlns:xlink="http://www.w3.org/1999/xlink" viewBox="0 0 220.236 220.236" xml:space="preserve">

<g id="SVGRepo_bgCarrier" stroke-width="0"/>

<g id="SVGRepo_tracerCarrier" stroke-linecap="round" stroke-linejoin="round"/>

<g id="SVGRepo_iconCarrier"> <path d="M99.895,19.73C44.813,19.73,0,64.543,0,119.625c0,55.082,44.813,99.894,99.895,99.894c55.082,0,99.894-44.813,99.894-99.894 v-7.5h-92.394V19.73H99.895z M184.461,127.125c-3.807,43.313-40.281,77.394-84.566,77.394C53.083,204.52,15,166.436,15,119.625 c0-44.286,34.081-80.76,77.395-84.567v92.067H184.461z M220.236,88.217c0-48.248-39.252-87.5-87.5-87.5h-7.5v95h95V88.217z M140.236,80.717V16.102c33.999,3.511,61.104,30.616,64.615,64.615H140.236z"/> </g>

</svg>